<?xml version="1.0" encoding="utf-8"?>
<!-- Generator: Adobe Illustrator 20.0.0, SVG Export Plug-In . SVG Version: 6.00 Build 0)  -->
<svg version="1.1" xmlns="http://www.w3.org/2000/svg" xmlns:xlink="http://www.w3.org/1999/xlink" x="0px" y="0px"
	 viewBox="0 0 261.3 149.8" style="enable-background:new 0 0 261.3 149.8;" xml:space="preserve">
<style type="text/css">
	.st0{display:none;}
	.st1{display:inline;fill:#79C7F2;}
	.st2{fill:none;stroke:#3498DB;stroke-width:1.4056;stroke-linejoin:round;stroke-miterlimit:10;}
	.st3{opacity:0.9;fill:none;stroke:#3498DB;stroke-width:1.4056;stroke-linejoin:round;stroke-miterlimit:10;}
	.st4{fill:none;stroke:#3498DB;stroke-width:1.406;stroke-linecap:round;stroke-linejoin:round;stroke-miterlimit:10;}
	.st5{fill:none;stroke:#3498DB;stroke-width:1.4053;stroke-linecap:round;stroke-linejoin:round;stroke-miterlimit:10;}
	.st6{fill:none;stroke:#E9F8FF;stroke-width:1.4053;stroke-linecap:round;stroke-linejoin:round;stroke-miterlimit:10;}
	
		.st7{display:inline;fill:#FFFFFF;stroke:#4F4A43;stroke-width:1.4221;stroke-linecap:round;stroke-linejoin:round;stroke-miterlimit:10;}
	.st8{display:inline;fill:none;}
	.st9{display:inline;fill:#4F4A43;}
	.st10{font-family:'Avenir-Black';}
	.st11{font-size:9px;}
	.st12{display:inline;}
	.st13{fill:#FFEAC5;stroke:#4F4A43;stroke-width:1.4221;stroke-miterlimit:10;}
	.st14{fill:#4F4A43;stroke:#4F4A43;stroke-width:1.7925;stroke-miterlimit:10;}
	.st15{fill:#4F4A43;stroke:#4F4A43;stroke-width:1.8359;stroke-miterlimit:10;}
	.st16{fill:none;stroke:#4F4A43;stroke-width:1.4221;stroke-linecap:round;stroke-linejoin:round;stroke-miterlimit:10;}
	.st17{fill:#A5967C;stroke:#4F4A43;stroke-width:1.4221;stroke-miterlimit:10;}
	.st18{fill:#FFFFFF;stroke:#4F4A43;stroke-width:1.1377;stroke-linecap:round;stroke-linejoin:round;stroke-miterlimit:10;}
	.st19{fill:#4F4A43;stroke:#4F4A43;stroke-width:1.1377;stroke-linecap:round;stroke-linejoin:round;stroke-miterlimit:10;}
	.st20{fill:#F98F8F;stroke:#4F4A43;stroke-width:1.1377;stroke-linecap:round;stroke-linejoin:round;stroke-miterlimit:10;}
	.st21{fill:none;stroke:#4F4A43;stroke-width:1.1377;stroke-linecap:round;stroke-linejoin:round;stroke-miterlimit:10;}
	.st22{display:inline;fill:#A5967C;stroke:#4F4A43;stroke-width:1.4221;stroke-miterlimit:10;}
	.st23{fill:#4F4A43;}
	
		.st24{display:inline;fill:none;stroke:#4F4A43;stroke-width:1.4221;stroke-linecap:round;stroke-linejoin:round;stroke-miterlimit:10;}
</style>
<g id="Layer_2" class="st0">
	<rect class="st1" width="261.3" height="149.8"/>
</g>
<g id="Layer_1">
	<polygon class="st2" points="160.4,122 155.9,133.3 164.2,133.3 198.1,133.3 193.7,122 165.9,122 	"/>
	<polyline class="st2" points="158.6,149.8 158.6,133.3 193.7,133.3 193.7,149.7 	"/>
	<line class="st2" x1="83.3" y1="133.3" x2="95.5" y2="133.3"/>
	<polyline class="st3" points="83.3,149.8 83.3,126.1 63.9,126.1 63.9,149.8 	"/>
	<rect x="61.1" y="120.8" class="st2" width="25" height="5.3"/>
	<rect x="92.6" y="92" class="st2" width="37.5" height="5.3"/>
	<polygon class="st2" points="76.4,136.3 71.3,136.3 71.3,130.3 76.4,130.3 76.4,133.3 	"/>
	<rect x="71.3" y="140.5" class="st2" width="5.1" height="6"/>
	<line class="st2" x1="76.4" y1="133.3" x2="71.3" y2="133.3"/>
	<line class="st2" x1="76.4" y1="143.5" x2="71.3" y2="143.5"/>
	<rect x="45.2" y="137.9" class="st2" width="5.1" height="6"/>
	<line class="st2" x1="50.2" y1="141" x2="45.2" y2="141"/>
	<g>
		<rect x="184.6" y="138.2" class="st2" width="4.4" height="5.4"/>
		<line class="st2" x1="189" y1="140.9" x2="184.6" y2="140.9"/>
	</g>
	<g>
		<rect x="164.3" y="138.2" class="st2" width="4.4" height="5.4"/>
		<line class="st2" x1="168.6" y1="140.9" x2="164.3" y2="140.9"/>
	</g>
	<g>
		<rect x="148.5" y="134.4" class="st2" width="4.4" height="5.4"/>
		<line class="st2" x1="152.9" y1="137.1" x2="148.5" y2="137.1"/>
	</g>
	<g>
		<rect x="160.4" y="115.7" class="st2" width="33.2" height="6.3"/>
		<g>
			<line class="st2" x1="190.6" y1="122" x2="190.6" y2="115.7"/>
			<line class="st2" x1="186.1" y1="122" x2="186.1" y2="115.7"/>
			<line class="st2" x1="181.5" y1="122" x2="181.5" y2="115.7"/>
			<line class="st2" x1="177" y1="122" x2="177" y2="115.7"/>
			<line class="st2" x1="172.5" y1="122" x2="172.5" y2="115.7"/>
			<line class="st2" x1="167.9" y1="122" x2="167.9" y2="115.7"/>
			<line class="st2" x1="163.4" y1="122" x2="163.4" y2="115.7"/>
		</g>
	</g>
	<line class="st2" x1="193.7" y1="137.9" x2="203.4" y2="137.9"/>
	<line class="st2" x1="63.9" y1="140.5" x2="56.5" y2="140.5"/>
	<polyline class="st2" points="226.6,149.8 226.6,125.4 203.4,125.4 203.4,149.8 	"/>
	<polyline class="st2" points="56.5,149.8 56.5,125.4 26.5,125.4 	"/>
	<rect x="44.6" y="119.2" class="st2" width="6.3" height="6.3"/>
	<polyline class="st4" points="26.5,131.9 56.5,131.9 56.5,125.4 26.5,125.4 	"/>
	<polyline class="st2" points="36.5,149.8 36.5,143 31.5,143 31.5,149.8 	"/>
	<polyline class="st2" points="179.5,149.8 179.5,143 174.5,143 174.5,149.8 	"/>
	<polyline class="st2" points="114,149.8 114,143 109,143 109,149.8 	"/>
	<polyline class="st2" points="217.5,149.8 217.5,143 212.5,143 212.5,149.8 	"/>
	<line class="st5" x1="43.9" y1="144" x2="51.5" y2="144"/>
	<path class="st6" d="M215.7,50.6c1.9,0,3.5-1.6,3.5-3.5c0-1.9-1.6-3.5-3.5-3.5c-0.4,0-0.8,0.1-1.2,0.2c-0.5-2.7-2.8-4.7-5.6-4.7
		c-1.9,0-3.5,0.9-4.6,2.3c-0.4-0.1-0.7-0.1-1.1-0.1c-2.6,0-4.6,2.1-4.6,4.6"/>
	<path class="st6" d="M65.2,65.1c0-4.2-3.4-7.6-7.6-7.6c-3.1,0-5.8,1.9-7,4.6c-0.2,0-0.4,0-0.6,0c-3,0-5.3,2.4-5.3,5.3"/>
	<circle class="st2" cx="215" cy="134.9" r="3"/>
	<rect x="201.2" y="120.2" class="st5" width="28.1" height="5.2"/>
	<rect x="221.2" y="113.6" class="st5" width="5.3" height="6.6"/>
	<path class="st5" d="M223.9,98.3c0,0,2.3,2.7,0,5c-2.3,2.3,0,5,0,5"/>
	<line class="st4" x1="226.6" y1="141.5" x2="233.4" y2="141.5"/>
	<line class="st4" x1="237.7" y1="141.5" x2="239.7" y2="141.5"/>
	<line class="st4" x1="21.9" y1="131.9" x2="18.8" y2="131.9"/>
	<line class="st4" x1="236.7" y1="146.4" x2="250.7" y2="146.4"/>
	<line class="st4" x1="255.2" y1="146.4" x2="257.7" y2="146.4"/>
	<line class="st4" x1="24.6" y1="146.4" x2="10.6" y2="146.4"/>
	<line class="st4" x1="6.1" y1="146.4" x2="3.6" y2="146.4"/>
	<polyline class="st2" points="127.2,149.8 127.2,97.3 95.8,97.3 95.8,149.8 	"/>
	<g>
		<rect x="100.4" y="104.3" class="st2" width="4.9" height="7"/>
		<rect x="109" y="104.3" class="st2" width="4.9" height="7"/>
		<rect x="117.7" y="104.3" class="st2" width="4.9" height="7"/>
	</g>
	<g>
		<rect x="100.4" y="116.4" class="st2" width="4.9" height="7"/>
		<rect x="109" y="116.4" class="st2" width="4.9" height="7"/>
		<rect x="117.7" y="116.4" class="st2" width="4.9" height="7"/>
	</g>
	<g>
		<rect x="100.4" y="128.4" class="st2" width="4.9" height="7"/>
		<rect x="109" y="128.4" class="st2" width="4.9" height="7"/>
		<rect x="117.7" y="128.4" class="st2" width="4.9" height="7"/>
	</g>
	<rect x="97.9" y="80.9" class="st2" width="4.2" height="11.1"/>
	<polyline class="st2" points="158.7,126.1 141.4,126.1 141.4,119.2 127.2,119.2 	"/>
	<path class="st2" d="M141.4,126.1"/>
</g>
<g id="Layer_6" class="st0">
	<path class="st7" d="M162.1,16.8H97.8c-5,0-9,4.1-9,9v17.3c0,5,4.1,9,9,9h26.8l5.3,5.3l5.3-5.3h26.8c5,0,9-4.1,9-9V25.8
		C171.1,20.8,167.1,16.8,162.1,16.8z"/>
	<rect x="77.6" y="30.6" class="st8" width="104.7" height="42.7"/>
	<text transform="matrix(1 0 0 1 122.308 37.4074)" class="st9 st10 st11">HI!</text>
</g>
<g id="Layer_5" class="st0">
	<g class="st12">
		<path class="st13" d="M169.6,149.5V93.7c0-14.3-12-28.8-25.9-25.9c-3.5,0.7-10.1,4.4-13.7,4.4c-3.6,0-10.2-3.6-13.7-4.4
			c-14-2.9-25.9,11.7-25.9,25.9v55.9"/>
		<path class="st14" d="M130,110.6L130,110.6c-5.6,0-10.3,3.7-11.4,8.7c3,1.9,7,3,11.4,3c4.4,0,8.4-1.1,11.4-3
			C140.3,114.4,135.5,110.6,130,110.6z"/>
		<g>
			<path class="st15" d="M153.6,68.7c0,0,19.8-3,22.3-0.5c2.4,2.4,4.4,30.9,2.4,31.2s-22.3-4.2-20.1-19.1
				C158.7,77.2,160.8,71.9,153.6,68.7z"/>
			<path class="st15" d="M106.3,68.6c0,0-19.8-3-22.3-0.5S79.7,99,81.6,99.3c2,0.3,22.3-4.2,20.1-19.1
				C101.2,77.1,99.1,71.9,106.3,68.6z"/>
		</g>
		<path class="st16" d="M101.2,114.7l-1.2-2.8c-3.3-7.1-2.4-12.6-1.2-16c1.6-4.2,4.8-7.5,9.1-9.3c1.8-0.8,3.8-1.2,5.8-1.2
			c5.9,0,10.3,4,13.6,8.9c0.4,0.6,1.4,1.5,2.7,0.2V86"/>
		<path class="st16" d="M158.7,114.7l1.2-2.8c3.3-7.1,2.4-12.6,1.2-16c-1.6-4.2-4.8-7.5-9.1-9.3c-1.8-0.8-3.8-1.2-5.8-1.2
			c-5.9,0-10.3,4-13.6,8.9c-0.4,0.6-1.4,1.5-2.7,0.2V86"/>
		<g>
			<path class="st17" d="M140.9,118.3l-2.4-1c-5.2-2.2-7.6-8.3-5.4-13.5l3.3-7.7c2.2-5.2,8.3-7.6,13.5-5.4l0,0
				c6.5,2.8,9.9,10.1,5.6,19.4l-1.2,2.9C152.1,118.2,148.3,125.8,140.9,118.3z"/>
			<path class="st17" d="M119.1,118.3l2.4-1c5.2-2.2,7.6-8.3,5.4-13.5l-3.3-7.7c-2.2-5.2-8.3-7.6-13.5-5.4l0,0
				c-6.5,2.8-9.9,10.1-5.6,19.4l1.2,2.9C107.8,118.2,111.6,125.8,119.1,118.3z"/>
		</g>
		<path class="st17" d="M118.5,115.4c-0.2,0.7-0.3,1.5-0.3,2.3l0,0c0.1,4,2.7,7.6,6.6,8.7c1.6,0.4,3.3,0.7,5.1,0.7
			c1.8,0,3.5-0.2,5.1-0.7c3.9-1.1,6.6-4.6,6.6-8.7v0c0-0.8-0.1-1.5-0.3-2.3c-3,1.9-7,3-11.4,3C125.6,118.3,121.6,117.2,118.5,115.4z
			"/>
		<g>
			<line class="st16" x1="135" y1="71" x2="135" y2="79.7"/>
			<line class="st16" x1="125" y1="71" x2="125" y2="79.7"/>
		</g>
		<path class="st16" d="M102.4,125.6c5.9,7.3,16.1,12.2,27.6,12.2s21.6-4.8,27.6-12.2"/>
		<g>
			<g>
				<path class="st18" d="M149.4,102.2c0-1.6,1.3-2.8,2.8-2.8c0.5,0,1,0.2,1.4,0.4c-0.5-1.3-1.9-2.3-3.4-2.3c-2,0-3.7,1.6-3.7,3.7
					s1.6,3.7,3.7,3.7c0.3,0,0.5,0,0.8-0.1C150,104.3,149.4,103.4,149.4,102.2z"/>
				<path class="st19" d="M153.9,101.2c0-0.5-0.1-1-0.3-1.4c-0.4-0.2-0.9-0.4-1.4-0.4c-1.6,0-2.8,1.3-2.8,2.8c0,1.1,0.7,2.1,1.6,2.5
					C152.6,104.4,153.9,103,153.9,101.2z"/>
			</g>
			<g>
				<path class="st18" d="M110.6,102.2c0-1.6-1.3-2.8-2.8-2.8c-0.5,0-1,0.2-1.4,0.4c0.5-1.3,1.9-2.3,3.4-2.3c2,0,3.7,1.6,3.7,3.7
					s-1.6,3.7-3.7,3.7c-0.3,0-0.5,0-0.8-0.1C109.9,104.3,110.6,103.4,110.6,102.2z"/>
				<path class="st19" d="M106,101.2c0-0.5,0.1-1,0.3-1.4c0.4-0.2,0.9-0.4,1.4-0.4c1.6,0,2.8,1.3,2.8,2.8c0,1.1-0.7,2.1-1.6,2.5
					C107.3,104.4,106,103,106,101.2z"/>
			</g>
		</g>
		<line class="st16" x1="130" y1="78.8" x2="130" y2="80.9"/>
	</g>
</g>
<g id="Layer_3" class="st0">
	<g class="st12">
		<path class="st20" d="M135.7,110.6h-11.5c-1.2,0-2.2,1-2.2,2.2s1,2.2,2.2,2.2h0.5v3.1c0,2.9,2.4,5.2,5.2,5.2s5.2-2.4,5.2-5.2V115
			h0.5c1.2,0,2.2-1,2.2-2.2S136.9,110.6,135.7,110.6z"/>
		<line class="st21" x1="130" y1="111.2" x2="130" y2="117"/>
	</g>
</g>
<g id="Layer_4" class="st0">
	<path class="st22" d="M150.6,115.7c-0.4-1.1-1.8-2.4-2-4c0,0-0.6-13.1-18.7-13.1s-18.7,13.1-18.7,13.1c-0.2,1.6-1.6,2.8-2,4
		c-1.8,4.8,1.7,10,6.9,9.9c0.1,0,6.1-0.2,6.2-0.2c0,0-2.5-2.3-3-3.5c-0.3-0.7-1-1.8-0.8-2.5c9.7,0,11.4-8.7,11.4-8.7l0,0l0,0
		c0,0,1.7,8.7,11.4,8.7c0.2,0.7-0.2,1.5-0.7,2.3c-0.9,1.4-3.6,3.7-3.6,3.7c0.1,0,6.5,0.2,6.6,0.2
		C148.9,125.8,152.5,120.6,150.6,115.7z"/>
	<g class="st12">
		<path class="st23" d="M130,106.2c3.4,0,6.2-2.8,6.2-6.2c0-0.3,0-0.5,0-0.7c-1.8-0.4-3.9-0.6-6.2-0.6c-2.3,0-4.4,0.2-6.2,0.6
			c0,0.2,0,0.5,0,0.7C123.7,103.4,126.5,106.2,130,106.2z"/>
	</g>
	<line class="st24" x1="130" y1="104.9" x2="130" y2="110.6"/>
	<g class="st12">
		<path class="st16" d="M139.3,119.2c0,0,3.1,0.4,4.9,0"/>
		<path class="st16" d="M120.6,119.2c0,0-3.1,0.4-4.9,0"/>
	</g>
	<g class="st12">
		<g>
			<circle class="st23" cx="120.9" cy="105.4" r="1"/>
			<circle class="st23" cx="125.2" cy="109.1" r="1"/>
			<circle class="st23" cx="118.4" cy="110.9" r="1"/>
		</g>
		<g>
			<circle class="st23" cx="139" cy="105.4" r="1"/>
			<circle class="st23" cx="134.7" cy="109.1" r="1"/>
			<circle class="st23" cx="141.5" cy="110.9" r="1"/>
		</g>
	</g>
</g>
</svg>
