<?xml version="1.0" encoding="utf-8"?>
<!-- Generator: Adobe Illustrator 20.0.0, SVG Export Plug-In . SVG Version: 6.00 Build 0)  -->
<svg version="1.1" id="Layer_1" xmlns="http://www.w3.org/2000/svg" xmlns:xlink="http://www.w3.org/1999/xlink" x="0px" y="0px"
	 viewBox="0 0 460.6 205.7" style="enable-background:new 0 0 460.6 205.7;" xml:space="preserve">
<style type="text/css">
	.st0{fill:#3498DB;}
	.st1{fill:#FFFFFF;}
	.st2{fill:none;}
</style>
<g>
	<g>
		<path class="st0" d="M429.6,61.3c0-0.6,0-1.2,0-1.8c0-0.5,0-1,0-1.5c0.2-3.1-0.4-6.1-1.8-8.9c-2.2-4.3-6.1-7.4-11.9-9.2l-16.1-5.1
			c-0.6-0.2-1.3-0.3-1.9-0.3c-2.7,0-5.2,1.8-6,4.4l-13.7,42.8c-0.3,0.9-0.3,1.9-0.2,2.8c-0.1,0.6-0.1,1.2,0,1.8
			c-0.1,0.6-0.1,1.2,0,1.8c-0.1,0.6-0.1,1.2,0,1.8c-0.2,1.3,0,2.6,0.6,3.8c0.8,1.5,2.1,2.6,3.7,3.1l17.5,5.6
			c1.9,0.6,3.9,0.9,5.8,0.9c2.9,0,5.7-0.7,8.2-2.1c4.4-2.2,7.6-6,9.3-11.4c0.7-2,0.9-4.1,0.9-6.3c0.1-0.7,0.1-1.4,0-2.1
			c0-0.6,0-1.2,0-1.8c0-0.6,0-1.2,0-1.9c0,0,0.1-0.1,0.1-0.1c2.1-2.1,3.6-4.6,4.4-7.3c0.8-2.6,1.1-5,1-7.4
			C429.7,62.4,429.6,61.9,429.6,61.3z"/>
		<path class="st0" d="M377.1,46.2c0.1-2.4-0.2-4.6-0.9-6.5c-0.9-3.1-2.6-6.1-5.1-8.8c-2.8-3-6.6-5.1-11.4-6.1
			c-1.6-0.3-3.2-0.5-4.7-0.5c-2.8,0-5.5,0.5-7.8,1.6c-3.5,1.5-6.3,3.5-8.4,6.1c-1.3,1.5-2.4,3.3-3.4,5.7c-0.8,2-1.7,5.6-2.9,11.2
			c-1.1,5.5-1.7,9.1-1.8,11.3c0,0.6,0,1.2,0,1.8c0,0,0,0,0,0c0,0.7,0,1.4,0,2.1c0,0.6,0,1.2,0,1.8c0,0.6,0,1.2,0,1.8
			c0,1.3,0,2.4,0.2,3.7c0.1,0.7,0.3,1.5,0.6,2.5c0.9,3.3,2.7,6.3,5.3,9c2.8,3,6.5,5.1,11.4,6.2c1.6,0.3,3.1,0.4,4.6,0.4
			c2.9,0,5.6-0.5,8-1.6c3.4-1.4,6.2-3.5,8.2-6c1.5-1.5,2.7-3.5,3.6-6c0.7-2,1.6-5.5,2.7-11c1.1-5.5,1.7-9.1,1.9-11.3
			c0-0.7,0-1.3,0-2c0-0.6,0-1.3,0-1.9c0-0.6,0-1.2,0-1.8C377.1,47.3,377.1,46.7,377.1,46.2z M356.5,53.8c-1.1,5.5-1.7,7.2-1.9,7.5
			c-0.3,0.6-0.5,0.8-0.5,0.8c-0.2,0.1-0.4,0.3-0.5,0.4c0,0-0.2,0.1-0.8,0.3c-0.1,0-0.2,0-0.3,0c-0.2,0-0.4,0-0.6-0.1
			c-0.5-0.1-0.7-0.2-0.7-0.3c-0.1-0.1-0.2-0.2-0.4-0.3c0,0,0,0,0,0c0.1-0.7,0.3-1.4,0.5-2.3c1.1-5.3,1.7-7.1,2-7.7
			c0.2-0.4,0.3-0.6,0.4-0.6c0.1-0.1,0.3-0.2,0.4-0.3c0.2-0.2,0.5-0.3,0.8-0.4c0,0,0.2-0.1,0.5-0.1c0.2,0,0.3,0,0.5,0
			c0.6,0.2,1,0.4,1,0.4c0,0,0,0,0,0c0.1,0,0.1,0.1,0.1,0.1C356.8,52.1,356.7,52.9,356.5,53.8z"/>
		<path class="st0" d="M69.2,82l-2-6.1c-0.8-2.6-3.3-4.4-6-4.4c-0.7,0-1.3,0.1-1.9,0.3l-14.2,4.6l-9.9-30.6
			c-0.5-1.6-1.6-2.9-3.1-3.7c-0.9-0.5-1.9-0.7-2.9-0.7c-0.7,0-1.3,0.1-1.9,0.3l-6.3,2c-3,1-4.7,3.9-4.3,6.9c-0.1,0.6-0.1,1.2,0,1.8
			c-0.1,0.6-0.1,1.2,0,1.8c-0.1,0.6-0.1,1.2,0,1.8c-0.1,0.9-0.1,1.9,0.2,2.8l13.8,42.7c0.8,2.6,3.3,4.4,6,4.4c0.7,0,1.3-0.1,1.9-0.3
			l26.4-8.6c1.6-0.5,2.9-1.6,3.7-3.1c0.6-1.2,0.8-2.5,0.6-3.8c0.1-0.6,0.1-1.2,0-1.8c0.1-0.6,0.1-1.2,0-1.8c0.1-0.6,0.1-1.2,0-1.8
			C69.6,83.8,69.5,82.9,69.2,82z"/>
		<path class="st0" d="M113.9,56.6l-6.2-29c-0.4-1.6-1.3-3.1-2.7-4c-1-0.7-2.2-1-3.4-1c-0.4,0-0.9,0-1.3,0.1l-6.4,1.4
			c-1.6,0.3-3.1,1.3-4,2.7c-0.8,1.3-1.1,2.8-0.9,4.3c-0.1,0.6-0.1,1.2,0,1.8c-0.1,0.6-0.1,1.2,0,1.8c-0.1,0.6-0.1,1.2,0,1.8
			c-0.1,0.7-0.1,1.5,0.1,2.3l5.2,24.5c-0.3,0.2-0.6,0.3-1,0.4c-0.3,0.1-0.6,0.1-0.8,0.1c-0.4,0-0.7-0.1-1.3-0.5
			C90.6,63,90.2,62.2,90,61l-6-28.3c-0.4-1.6-1.3-3.1-2.7-4c-1-0.7-2.2-1-3.4-1c-0.4,0-0.9,0-1.3,0.1L70,29.2
			c-1.6,0.3-3.1,1.3-4,2.7c-0.8,1.3-1.1,2.8-0.9,4.3c-0.1,0.6-0.1,1.2,0,1.8c-0.1,0.6-0.1,1.2,0,1.8c-0.1,0.6-0.1,1.2,0,1.8
			c-0.1,0.7-0.1,1.5,0.1,2.3l6.2,29.1c1.4,6.3,4.7,11.1,9.6,14c3.5,2.2,7.3,3.3,11.4,3.3c1.6,0,3.2-0.2,4.9-0.5
			c6-1.3,10.6-4.4,13.7-9.2c2.5-3.7,3.6-7.9,3.4-12.7c0-0.6,0-1.2,0-1.8c0-0.6,0-1.2,0-1.8c0-0.6,0-1.1,0-1.7
			C114.5,60.7,114.3,58.7,113.9,56.6z"/>
		<path class="st0" d="M170.5,64.8l-5.2-44.6c-0.4-3.2-3.1-5.6-6.3-5.6c-0.2,0-0.5,0-0.7,0l-6.5,0.8c-1.7,0.2-3.2,1-4.2,2.3
			c-1,1.3-1.5,3-1.3,4.6l0,0.3c-0.1,0.5-0.1,1,0,1.5l0,0.3c-0.1,0.5-0.1,1,0,1.5l0,0.3c-0.1,0.5-0.1,1,0,1.5l0,0.3
			c-0.1,0.5-0.1,1,0,1.5l0.2,1.4l-8.7-10.9c-1.2-1.5-3-2.4-4.9-2.4c-0.2,0-0.5,0-0.7,0l-6.2,0.7c-1.7,0.2-3.2,1-4.2,2.4
			s-1.5,3-1.3,4.6l0,0.3c-0.1,0.5-0.1,1,0,1.5l0,0.3c-0.1,0.5-0.1,1,0,1.5l0,0.3c-0.1,0.5-0.1,1,0,1.5l0,0.3c-0.1,0.5-0.1,1,0,1.5
			l5.2,44.6c0.2,1.7,1,3.2,2.4,4.2c1.1,0.9,2.5,1.4,3.9,1.4c0.2,0,0.5,0,0.7,0l6.5-0.8c1.7-0.2,3.2-1,4.2-2.4c1-1.3,1.5-3,1.3-4.6
			l0-0.3c0.1-0.5,0.1-1,0-1.5l0-0.3c0.1-0.5,0.1-1,0-1.5l0-0.3c0.1-0.5,0.1-1,0-1.5l0-0.3c0.1-0.5,0.1-1,0-1.5l-0.2-1.4l8.6,10.9
			c1.2,1.5,3,2.4,4.9,2.4c0.2,0,0.5,0,0.7,0l6.2-0.7c1.7-0.2,3.2-1,4.2-2.3c1-1.3,1.5-3,1.3-4.6l0-0.3c0.1-0.5,0.1-1,0-1.5l0-0.3
			c0.1-0.5,0.1-1,0-1.5l0-0.3c0.1-0.5,0.1-1,0-1.5l0-0.3C170.5,65.8,170.5,65.3,170.5,64.8z"/>
		<path class="st0" d="M220.1,46.2c-1-1.2-2.3-1.9-3.8-2.1c1.3-0.4,2.4-1.1,3.3-2.2c1-1.4,1.4-3.1,1.2-4.7c0.1-0.6,0.1-1.2,0-1.8
			c0.1-0.6,0.1-1.2,0-1.8c0.1-0.6,0.1-1.2,0-1.8c0.1-0.8,0.1-1.5-0.1-2.3c-1.1-5-3.6-9.2-7.3-12.6c-3.8-3.3-8.5-5-14.1-5
			c-0.2,0-0.5,0-0.8,0c-4.7,0.2-8.8,1.6-11.9,4.1c-3,2.3-5.3,4.9-6.7,7.9c-0.9,1.8-1.6,3.8-1.9,6.4c-0.2,1.4-0.3,3.3-0.2,6
			c0,0.6,0,1.2,0,1.9c0,0.6,0,1.2,0,1.8c0,0.6,0,1.2,0,1.9c0,1.9,0,4.2,0.1,7.1c0.2,5.6,0.5,9.2,1,11.4c0.3,1.4,0.6,2.6,1.1,3.8
			c0.3,0.7,0.7,1.4,1.1,2.3c1.6,3,4.1,5.5,7.3,7.5c3.3,2.2,7.3,3.3,11.9,3.3l0.5,0c5.2-0.2,9.8-2,13.7-5.3c3.6-3.3,6-7.7,7.1-13.3
			c0.1-0.7,0.1-1.4,0-2c0.1-0.6,0.1-1.2,0-1.8c0.1-0.6,0.1-1.2,0-1.8c0.1-0.6,0.1-1.2,0-1.8C221.8,49.5,221.3,47.6,220.1,46.2z
			 M202.5,48.2c-1,2.5-1.9,2.5-2.6,2.5c-0.4,0-0.6-0.1-0.6-0.1l0,0c-0.2-0.1-0.3-0.2-0.4-0.2c-0.4-0.2-0.5-0.3-0.6-0.4
			c-0.1-0.1-0.2-0.3-0.3-0.4c0,0-0.1-0.2-0.3-0.9c-0.1-0.4-0.4-2.1-0.6-7.7c0,0,0,0,0,0c0-0.3,0.1-0.6,0.1-0.7
			c0.1-0.5,0.2-0.7,0.2-0.7c0.1-0.1,0.2-0.3,0.3-0.4c0.1-0.2,0.4-0.4,0.7-0.6c0.2-0.1,0.5-0.2,1.1-0.3c0.6,0,1,0.1,1.1,0.2
			c0.6,0.5,0.9,1,1.2,1.7c0.7,2.2,2.6,3.8,5,4.2C204.8,45.1,203.2,46.4,202.5,48.2z"/>
		<path class="st0" d="M265.6,12.8l-6.8-0.2c-1.6,0-3.1,0.6-4.3,1.7c-1.2,1.1-1.9,2.7-2,4.4l-0.5,13l-4.4-0.2l0.2-5.8
			c0-0.2,0-0.5,0-0.7l0-1.1c0-0.2,0-0.5,0-0.7l0-1.1c0-0.2,0-0.5,0-0.7l0-1.1c0-0.2,0-0.5,0-0.7l0-1.1c0.1-1.7-0.5-3.3-1.7-4.5
			c-1.1-1.2-2.7-1.9-4.4-2l-6.7-0.2c-1.6,0-3.2,0.6-4.4,1.7c-1.2,1.1-1.9,2.7-2,4.4l-1.7,44.9c0,0.2,0,0.4,0,0.7l0,1.1
			c0,0.2,0,0.4,0,0.7l0,1.1c0,0.2,0,0.4,0,0.7l0,1.1c0,0.2,0,0.4,0,0.7l0,1.1c-0.1,3.5,2.6,6.4,6.1,6.5l6.8,0.2
			c1.6,0,3.1-0.6,4.3-1.7c1.2-1.1,1.9-2.7,2-4.4l0.5-13.3l4.4,0.2l-0.2,6.1c0,0.2,0,0.5,0,0.7l0,1.1c0,0.2,0,0.5,0,0.7l0,1.1
			c0,0.2,0,0.5,0,0.7l0,1.1c0,0.2,0,0.5,0,0.7l0,1.1c-0.1,1.7,0.5,3.3,1.7,4.5c1.1,1.2,2.7,1.9,4.4,2l6.8,0.2c1.6,0,3.1-0.6,4.3-1.7
			c1.2-1.1,1.9-2.7,2-4.4l1.7-44.9c0-0.2,0-0.4,0-0.7l0-1.1c0-0.2,0-0.4,0-0.7l0-1.1c0-0.2,0-0.4,0-0.7l0-1.1c0-0.2,0-0.4,0-0.7
			l0-1.1C271.8,15.9,269.1,13,265.6,12.8z"/>
		<path class="st0" d="M322.1,23.6c-2.9-3.8-7.4-6-13.4-6.8l-16.8-2c-0.2,0-0.5,0-0.7,0c-3.2,0-5.9,2.4-6.3,5.6l-5.2,44.6
			c-0.1,0.5,0,1,0,1.5l0,0.3c-0.1,0.5,0,1,0,1.5l0,0.3c-0.1,0.5,0,1,0,1.5l0,0.3c-0.1,0.5,0,1,0,1.5l0,0.3c-0.2,1.7,0.3,3.3,1.3,4.6
			c1,1.3,2.5,2.2,4.2,2.3l18.2,2.1c0.8,0.1,1.6,0.1,2.4,0.1c4.2,0,8-1.3,11.1-3.9c3.9-3,6.3-7.4,7-13c0.1-1.1,0.1-2.1,0.1-3.2
			c0-0.7,0-1.3,0-2c0-0.6,0-1.2,0-1.8c0-0.6,0-1.3,0-1.9c0.1-1.6-0.1-3.2-0.4-4.8c1.1-2,1.8-4.2,2-6.4c0.2-1.3,0.2-2.5,0.1-3.7
			c0-0.5,0-1,0-1.5c0-0.6,0-1.2,0-1.8c0-0.6,0-1.1,0-1.6C325.9,31.1,324.7,27,322.1,23.6z"/>
	</g>
	<g>
		<path class="st1" d="M63.8,77c-0.5-1.4-2-2.2-3.4-1.7l-17.6,5.7l-11-34.1c-0.2-0.7-0.7-1.2-1.3-1.6c-0.6-0.3-1.4-0.4-2.1-0.2
			l-6.3,2c-1.4,0.5-2.2,2-1.7,3.4l13.8,42.7c0.4,1.1,1.4,1.9,2.6,1.9c0.3,0,0.6,0,0.8-0.1L64,86.5c0.7-0.2,1.2-0.7,1.6-1.3
			c0.3-0.6,0.4-1.4,0.2-2.1L63.8,77z"/>
	</g>
	<g>
		<path class="st1" d="M104.2,28.3c-0.1-0.7-0.6-1.3-1.2-1.7c-0.6-0.4-1.3-0.5-2-0.4l-6.4,1.4c-1.5,0.3-2.4,1.7-2.1,3.2l6,28.3
			c0.5,2.3,0.3,4-0.6,5.4c-0.9,1.4-2.2,2.2-4,2.6c-1.8,0.4-3.3,0.1-4.7-0.8c-1.3-0.8-2.2-2.3-2.8-4.6l-6-28.3
			c-0.1-0.7-0.6-1.3-1.2-1.7c-0.6-0.4-1.3-0.5-2-0.4l-6.4,1.4c-1.5,0.3-2.4,1.7-2.1,3.2L74.9,65c1.2,5.3,3.9,9.3,8,11.7
			c2.9,1.8,6.1,2.8,9.5,2.8c1.3,0,2.7-0.1,4.1-0.4c5-1.1,8.9-3.7,11.5-7.7c2.7-3.9,3.5-8.6,2.4-14L104.2,28.3z"/>
	</g>
	<g>
		<path class="st1" d="M161.7,20.6c-0.2-1.5-1.5-2.5-3-2.4l-6.5,0.8c-0.7,0.1-1.4,0.4-1.8,1c-0.4,0.6-0.6,1.3-0.6,2l2.6,22.5
			l-17.5-22.1c-0.6-0.7-1.5-1.1-2.4-1l-6.2,0.7c-1.5,0.2-2.5,1.5-2.4,3l5.2,44.6c0.1,0.7,0.4,1.4,1,1.8c0.5,0.4,1.1,0.6,1.7,0.6
			c0.1,0,0.2,0,0.3,0l6.5-0.8c1.5-0.2,2.5-1.5,2.4-3l-2.6-22.4l17.5,22.1c0.6,0.7,1.5,1.1,2.4,1l6.2-0.7c0.7-0.1,1.4-0.4,1.8-1
			c0.4-0.6,0.6-1.3,0.6-2L161.7,20.6z"/>
	</g>
	<g>
		<path class="st1" d="M215.2,47.6l-7,0.3c-1.1,0-2,0.7-2.4,1.7c-1.7,4.1-4,4.7-5.7,4.8c-1,0-1.9-0.1-2.6-0.5
			c-0.1,0-0.1-0.1-0.2-0.1c-0.8-0.4-1.4-0.8-1.9-1.4c0-0.1-0.1-0.1-0.1-0.2c-0.5-0.6-0.9-1.4-1.2-2.5c-0.2-0.9-0.5-3.2-0.7-8.4
			c-0.2-5.3,0-7.5,0.1-8.6c0.2-1,0.5-1.9,1-2.5c0-0.1,0.1-0.1,0.1-0.2c0.4-0.6,1-1.2,1.8-1.6c0.7-0.4,1.7-0.7,2.7-0.7
			c1.5,0,2.7,0.3,3.7,1.1c1.1,0.9,1.8,2,2.3,3.3c0.4,1.1,1.4,1.8,2.7,1.8l7-0.3c0.8,0,1.5-0.4,2-1c0.5-0.6,0.7-1.5,0.5-2.2
			c-1-4.3-3-7.9-6.2-10.7c-3.3-2.9-7.4-4.3-12.3-4.1c-4,0.2-7.3,1.3-10,3.4c-2.6,1.9-4.5,4.2-5.6,6.7c-0.8,1.4-1.3,3.1-1.6,5.2
			c-0.3,1.9-0.3,5.5-0.1,10.9c0.2,5.3,0.5,8.9,0.9,10.8c0.2,1.1,0.5,2.1,0.9,3c0.3,0.6,0.6,1.3,1,2.1c1.3,2.4,3.4,4.5,6.1,6.2
			c2.7,1.8,6,2.7,9.9,2.7c0.1,0,0.2,0,0.3,0c4.4-0.2,8.2-1.6,11.4-4.4c3-2.7,5-6.5,6-11.3c0.2-0.8-0.1-1.6-0.6-2.3
			C216.8,47.9,216.1,47.6,215.2,47.6z"/>
	</g>
	<g>
		<path class="st1" d="M265.5,16.4l-6.6-0.2c-0.7,0-1.4,0.2-1.9,0.7c-0.5,0.5-0.8,1.2-0.9,1.9l-0.6,16.5l-11.9-0.4l0.6-16.5
			c0-0.7-0.2-1.4-0.7-1.9c-0.5-0.5-1.2-0.8-1.9-0.9l-6.6-0.2c-0.7,0-1.4,0.2-1.9,0.7c-0.5,0.5-0.8,1.2-0.9,1.9l-1.7,44.9
			c-0.1,1.5,1.1,2.7,2.6,2.8l6.6,0.2c0.7,0,1.4-0.2,1.9-0.7c0.5-0.5,0.8-1.2,0.9-1.9l0.6-16.9l11.9,0.4l-0.6,16.9
			c0,0.7,0.2,1.4,0.7,1.9c0.5,0.5,1.2,0.8,1.9,0.9l6.6,0.2c0,0,0.1,0,0.1,0c0.7,0,1.3-0.3,1.8-0.7c0.5-0.5,0.8-1.2,0.9-1.9l1.7-44.9
			C268.2,17.7,267,16.5,265.5,16.4z"/>
	</g>
	<g>
		<path class="st1" d="M308.2,20.4l-16.7-2c-1.5-0.2-2.8,0.9-3,2.4l-5.2,44.6c-0.1,0.7,0.1,1.4,0.6,2c0.4,0.6,1.1,0.9,1.8,1
			l18.2,2.1c0.7,0.1,1.3,0.1,1.9,0.1c3.4,0,6.4-1.1,8.9-3.2c3.1-2.4,5-6,5.6-10.6c0.3-2.8-0.1-5.5-1.2-8.1c-0.6-1.2-1.3-2.2-2.1-3.1
			c1-0.7,1.9-1.6,2.6-2.5c1.4-1.9,2.1-4.1,2.4-6.3c0.5-4.3-0.4-8-2.8-11C316.9,22.8,313.2,21,308.2,20.4z M297.1,49.6l7.4,0.9
			c1.6,0.2,2.7,0.7,3.2,1.5c0.6,0.9,0.8,1.9,0.7,3.1c-0.1,1.2-0.6,2-1.4,2.8c-0.7,0.6-1.9,0.9-3.4,0.7l-7.4-0.9L297.1,49.6z
			 M310,35.9c-0.1,1.1-0.5,1.9-1.4,2.6c-0.7,0.6-1.8,0.8-3.4,0.6l-6.8-0.8l0.9-7.5l6.7,0.8c1.1,0.2,2.6,0.5,3.2,1.3
			C309.9,33.8,310.2,34.7,310,35.9z"/>
	</g>
	<g>
		<path class="st1" d="M368.5,33.3c-2.3-2.5-5.4-4.2-9.4-5c-3.9-0.8-7.4-0.5-10.5,0.9c-3,1.3-5.4,3-7.1,5.1c-1.1,1.2-2,2.7-2.8,4.7
			c-0.7,1.8-1.6,5.3-2.7,10.6c-1.1,5.2-1.6,8.7-1.7,10.7c0,1.2,0,2.1,0.1,3.1c0.1,0.7,0.3,1.4,0.5,2.3c0.7,2.7,2.2,5.2,4.5,7.5
			c2.3,2.5,5.4,4.2,9.4,5.1c1.4,0.2,2.7,0.4,3.9,0.4c2.4,0,4.6-0.4,6.6-1.3c2.9-1.2,5.2-2.9,6.9-5.1c1.2-1.2,2.1-2.8,2.9-4.8
			c0.7-1.9,1.5-5.3,2.6-10.5c1.1-5.3,1.7-8.8,1.8-10.8c0.1-2.1-0.1-3.9-0.7-5.5C372.1,38.1,370.6,35.6,368.5,33.3z M361.3,46.1
			c0,1-0.3,3.3-1.3,8.5c-1.1,5.2-1.7,7.3-2.1,8.2c-0.4,1-1,1.8-1.6,2.3c-0.1,0.1-0.2,0.1-0.2,0.2c-0.5,0.5-1.2,0.8-2.1,1.1
			c-0.8,0.3-1.7,0.3-2.8,0.1c-1-0.2-1.8-0.6-2.4-1.1c-0.1,0-0.1-0.1-0.2-0.1c-0.7-0.5-1.2-1.1-1.5-1.8c0-0.1-0.1-0.1-0.1-0.2
			c-0.4-0.7-0.6-1.6-0.5-2.7c0-1,0.2-3.2,1.3-8.4c1.1-5.2,1.8-7.3,2.2-8.3c0.4-1,0.9-1.7,1.5-2.2c0.1,0,0.1-0.1,0.2-0.1
			c0.6-0.5,1.3-0.9,2.1-1.1c0.8-0.2,1.8-0.3,2.7-0.1c1.1,0.3,2,0.7,2.7,1.2c0.7,0.6,1.1,1.2,1.4,1.9c0,0.1,0.1,0.2,0.1,0.3
			C361.1,44.1,361.3,45,361.3,46.1z"/>
	</g>
	<g>
		<path class="st1" d="M424.6,50.7c-1.7-3.4-5-5.9-9.8-7.5l-16.1-5.1c-1.4-0.5-2.9,0.3-3.4,1.7l-13.7,42.8c-0.2,0.7-0.2,1.4,0.2,2.1
			c0.3,0.6,0.9,1.1,1.6,1.3l17.5,5.6c1.6,0.5,3.2,0.8,4.7,0.8c2.3,0,4.5-0.6,6.6-1.7c3.5-1.8,6.1-4.9,7.5-9.3c0.9-2.7,1-5.4,0.4-8.2
			c-0.3-1.2-0.8-2.4-1.5-3.4c1.2-0.5,2.2-1.2,3.1-2c1.7-1.7,2.9-3.6,3.5-5.8C426.5,57.9,426.3,54.1,424.6,50.7z M405.5,72.2
			c1.6,0.5,2.5,1.2,2.9,2.1c0.4,1,0.5,2,0.1,3.2c-0.4,1.1-1,1.9-1.9,2.5c-0.8,0.5-2,0.5-3.5,0.1l-7.1-2.3l2.5-7.7L405.5,72.2z
			 M408.4,61.1l-6.5-2.1l2.3-7.2l6.5,2.1c1.1,0.4,2.5,1,2.9,1.9c0.4,0.9,0.5,1.9,0.1,3c-0.3,1.1-0.9,1.8-1.9,2.3
			C411,61.6,409.9,61.6,408.4,61.1z"/>
	</g>
</g>
<g id="Facebook_Messenger_1_">
	<g>
		<path class="st0" d="M431.4,28c-3.4-3.1-5.3-7.3-5.3-11.7c0-9,7.7-16.3,17.2-16.3s17.2,7.3,17.2,16.3s-7.7,16.3-17.2,16.3
			c-1.2,0-2.5-0.1-3.7-0.4l-8.3,4.6V28z"/>
		<path class="st1" d="M443.3,3c-7.9,0-14.2,5.9-14.2,13.3c0,4.2,2.1,7.9,5.3,10.3v5.1l4.9-2.7c1.3,0.4,2.7,0.6,4.1,0.6
			c7.9,0,14.2-5.9,14.2-13.3S451.2,3,443.3,3z M444.7,20.9l-3.6-3.9l-7.1,3.9l7.8-8.3l3.7,3.9l7-3.9L444.7,20.9z"/>
	</g>
</g>
<path class="st0" d="M243.8,168.4c0-0.2,0-0.4,0-0.6c0-11.4-9.3-20.7-20.7-20.7s-20.7,9.3-20.7,20.7c0,0.2,0,0.4,0,0.6
	c0,0.1,0,0.2,0,0.3c0,0.2,0,0.4,0,0.6c0,0.1,0,0.2,0,0.3c0,0.2,0,0.4,0,0.6c0,0.1,0,0.2,0,0.3c0,0.2,0,0.4,0,0.6c0,0.1,0,0.2,0,0.3
	c0,0.2,0,0.4,0,0.6c0,0.1,0,0.2,0,0.3c0,0.2,0,0.4,0,0.6c0,0.1,0,0.2,0,0.3c0,20.3,18.4,30.8,19.2,31.3l1.5,0.8l1.5-0.8
	c0.8-0.4,19.2-11,19.2-31.3c0-0.1,0-0.2,0-0.3c0-0.2,0-0.4,0-0.6c0-0.1,0-0.2,0-0.3c0-0.2,0-0.4,0-0.6c0-0.1,0-0.2,0-0.3
	c0-0.2,0-0.4,0-0.6c0-0.1,0-0.2,0-0.3c0-0.2,0-0.4,0-0.6c0-0.1,0-0.2,0-0.3c0-0.2,0-0.4,0-0.6C243.8,168.6,243.8,168.5,243.8,168.4z
	"/>
<path class="st1" d="M223.2,150.1c-9.8,0-17.7,7.9-17.7,17.7c0,18.8,17.7,28.7,17.7,28.7s17.7-9.9,17.7-28.7
	C240.8,158,232.9,150.1,223.2,150.1z"/>
<circle class="st0" cx="223.2" cy="169.3" r="6.5"/>
<path id="SVGID_x5F_1_x5F_" class="st2" d="M0,186.2c30.5-38.7,118.8-70.7,223.2-70.7s192.7,32,223.2,70.7"/>
<text><textPath  xlink:href="#SVGID_x5F_1_x5F_" startOffset="17.4925%">
<tspan  class="st1" style="font-family:'DINAlternate-Bold'; font-size:18px;">“I’ve got 99 problems, but the lunch ain’t one”</tspan></textPath>
</text>
</svg>
