<?xml version="1.0" encoding="utf-8"?>
<!-- Generator: Adobe Illustrator 20.0.0, SVG Export Plug-In . SVG Version: 6.00 Build 0)  -->
<svg version="1.1" xmlns="http://www.w3.org/2000/svg" xmlns:xlink="http://www.w3.org/1999/xlink" x="0px" y="0px"
	 viewBox="0 0 851 1080" style="enable-background:new 0 0 851 1080;" xml:space="preserve">
<style type="text/css">
	.st0{display:none;}
	.st1{display:inline;fill:#79C7F2;}
	.st2{opacity:0.5;}
	.st3{fill:#FFFFFF;stroke:#3498DB;stroke-width:1.4;stroke-miterlimit:10;}
	.st4{fill:#3498DB;}
	.st5{fill:none;stroke:#3498DB;stroke-width:1.6;stroke-miterlimit:10;}
	.st6{fill:#FFFFFF;stroke:#3498DB;stroke-width:1.6;stroke-linecap:round;stroke-linejoin:round;stroke-miterlimit:10;}
	.st7{fill:none;stroke:#3498DB;stroke-width:1.6;stroke-linecap:round;stroke-linejoin:round;stroke-miterlimit:10;}
	.st8{fill:#FFFFFF;stroke:#3498DB;stroke-width:1.6;stroke-miterlimit:10;}
</style>
<g id="Layer_2" class="st0">
	<rect class="st1" width="851" height="315"/>
</g>
<g id="Layer_1">
	<g class="st2">
		<g>
			<path class="st3" d="M156.6,552.7l-18.7-3.7c-4.2-0.8-8.3,1.9-9.1,6.1l0,0c-0.8,4.2,1.9,8.3,6.1,9.1l18.7,3.7
				c4.2,0.8,8.3-1.9,9.1-6.1l0,0C163.5,557.7,160.7,553.6,156.6,552.7z"/>
			<path class="st3" d="M164.1,562c-1.9-0.4-3.6-1.9-4-3.9c-0.3-1.4-1.4-2.6-2.8-2.8l-21-4.2c-1.4-0.3-2.9,0.3-3.7,1.5
				c-1.6,2.3-4.8,2.9-7.1,1.3c-2.3-1.6-2.9-4.8-1.3-7.1c3.2-4.6,8.7-6.8,14.1-5.7l21,4.2c5.4,1.1,9.7,5.3,10.8,10.7
				c0.6,2.8-1.2,5.5-3.9,6.1C165.5,562.2,164.8,562.2,164.1,562z"/>
			<path class="st3" d="M164.1,562c-1.9-0.4-3.6-1.9-4-3.9c-0.3-1.4-1.4-2.6-2.8-2.8l-21-4.2c-1.4-0.3-2.9,0.3-3.7,1.5
				c-1.6,2.3-4.8,2.9-7.1,1.3c-2.3-1.6-2.9-4.8-1.3-7.1c3.2-4.6,8.7-6.8,14.1-5.7l21,4.2c5.4,1.1,9.7,5.3,10.8,10.7
				c0.6,2.8-1.2,5.5-3.9,6.1C165.5,562.2,164.8,562.2,164.1,562z"/>
		</g>
		<g>
			<circle class="st3" cx="100" cy="539.9" r="14.5"/>
			<circle class="st4" cx="100" cy="539.9" r="5.9"/>
		</g>
		<g>
			<circle class="st3" cx="129.1" cy="518.1" r="14.5"/>
			<circle class="st4" cx="129.1" cy="518.1" r="5.9"/>
		</g>
		
			<rect x="142.9" y="543" transform="matrix(0.9806 0.1961 -0.1961 0.9806 111.6977 -17.9993)" class="st4" width="7.7" height="23.9"/>
		<line class="st5" x1="105.9" y1="478.9" x2="39.5" y2="549.7"/>
		<line class="st5" x1="132.5" y1="486.9" x2="44.6" y2="528"/>
	</g>
	<g class="st2">
		<g>
			<path class="st6" d="M92.6,72.1c-0.8,0.2-1.5,0.5-2.1,0.9c-2.6-2.9-6.7-4.3-10.8-3.2c-2,0.6-3.7,1.7-5,3.1
				c-2.6-1.6-5.9-2.2-9.1-1.3c-4.6,1.3-7.8,5.1-8.5,9.6c-0.3,0-0.6,0.1-0.9,0.2c-4.4,1.2-6.9,5.7-5.7,10c1.2,4.4,5.7,6.9,10,5.7
				c1.9-0.5,3.5-1.7,4.6-3.2c2.1,0.7,4.4,0.8,6.7,0.2c2.6-0.7,4.8-2.3,6.3-4.4c2.2,1,4.8,1.3,7.3,0.6c2.3-0.6,4.3-2,5.6-3.8
				c1.7,0.9,3.8,1.2,5.8,0.7c4.2-1.1,6.7-5.5,5.5-9.7C101.1,73.4,96.8,70.9,92.6,72.1z"/>
			<path class="st6" d="M74.7,72.9c0,0,4.8,3.4,4.4,7.1"/>
		</g>
		<g>
			<path class="st6" d="M112.4,46c8.7,4.1,12.4,14.6,8.3,23.3c-4.1,8.7-14.6,12.4-23.3,8.3L112.4,46z"/>
			<path class="st6" d="M110.1,50.8c6.1,2.9,8.6,10.1,5.8,16.2s-10.1,8.6-16.2,5.8L110.1,50.8z"/>
			<g>
				<line class="st6" x1="104.9" y1="61.8" x2="103.6" y2="64.5"/>
				<line class="st6" x1="101.9" y1="68" x2="101.9" y2="68"/>
			</g>
			<g>
				<line class="st6" x1="104.9" y1="61.8" x2="105.9" y2="64.6"/>
				<line class="st6" x1="107.2" y1="68.2" x2="107.2" y2="68.2"/>
			</g>
			<g>
				<line class="st6" x1="104.9" y1="61.8" x2="107.6" y2="63.1"/>
				<line class="st6" x1="111.1" y1="64.7" x2="111.1" y2="64.7"/>
			</g>
			<g>
				<line class="st6" x1="104.9" y1="61.8" x2="107.7" y2="60.8"/>
				<line class="st6" x1="111.4" y1="59.5" x2="111.4" y2="59.5"/>
			</g>
			<g>
				<line class="st6" x1="104.9" y1="61.8" x2="106.2" y2="59"/>
				<line class="st6" x1="107.8" y1="55.6" x2="107.8" y2="55.6"/>
			</g>
		</g>
		<g>
			
				<ellipse transform="matrix(0.9646 -0.2638 0.2638 0.9646 -12.2672 21.1929)" class="st6" cx="72.8" cy="56.3" rx="11.7" ry="11.7"/>
			<line class="st6" x1="71.4" y1="51.3" x2="71.1" y2="50.2"/>
			<line class="st6" x1="68.3" y1="53.7" x2="67.3" y2="53.2"/>
			<line class="st6" x1="67.8" y1="57.7" x2="66.7" y2="57.9"/>
			<line class="st6" x1="70.2" y1="60.8" x2="69.7" y2="61.8"/>
			<line class="st6" x1="74.2" y1="61.3" x2="74.5" y2="62.4"/>
			<line class="st6" x1="77.3" y1="58.9" x2="78.3" y2="59.4"/>
			<line class="st6" x1="77.8" y1="54.9" x2="78.9" y2="54.6"/>
			<line class="st7" x1="75.4" y1="51.8" x2="75.9" y2="50.8"/>
		</g>
		<g>
			<path class="st6" d="M55,80.5c-0.5-0.5-1.1-1-1.8-1.3c-2.3-1.1-4.8-0.9-6.8,0.5c-0.5-0.7-1.1-1.3-2-1.7c-2.2-1.1-4.8-0.5-6.3,1.4
				c-2.5-1-5.3,0.1-6.6,2.5c-1.2,2.4-0.4,5.4,1.9,6.8c-0.6,2.3,0.4,4.8,2.7,5.9c0.8,0.4,1.7,0.6,2.6,0.5c0.1,2.4,1.4,4.6,3.7,5.7
				c0.7,0.3,1.4,0.5,2.1,0.6c0.6,2,2,3.8,4,4.8c3.9,2,8.6,0.4,10.6-3.5c1.2-2.3,1.1-4.9,0-7.1c2.4-0.4,4.5-1.9,5.7-4.2
				c2-3.9,0.4-8.6-3.5-10.6C59.2,79.9,57,79.8,55,80.5z"/>
			<line class="st6" x1="65.3" y1="98.8" x2="42.7" y2="87.4"/>
			<polyline class="st7" points="52.6,87.1 54.7,93.5 48.3,95.6 			"/>
		</g>
		<g>
			<path class="st6" d="M155.6,52.4c0.8-0.4,1.5-1,2.1-1.6c2.1-2.3,2.6-5.4,1.7-8.1c1-0.3,1.9-0.9,2.7-1.7c2-2.2,2.2-5.5,0.5-7.9
				c2-2.6,1.7-6.3-0.7-8.5c-2.4-2.2-6.1-2.2-8.6-0.1c-2.5-1.5-5.8-1.1-7.8,1.1c-0.8,0.8-1.3,1.8-1.5,2.8c-2.8-0.7-5.9,0.1-7.9,2.4
				c-0.6,0.7-1.1,1.4-1.5,2.2c-2.5,0-5.1,1.1-6.9,3.1c-3.6,3.9-3.3,9.9,0.5,13.5c2.3,2.1,5.4,2.9,8.3,2.4c-0.3,2.9,0.7,5.9,3,8.1
				c3.9,3.6,9.9,3.3,13.5-0.5C155,57.5,155.8,54.9,155.6,52.4z"/>
			<line class="st6" x1="130.7" y1="58.3" x2="151.7" y2="35.6"/>
			<polyline class="st7" points="148.7,47.4 140.5,47.7 140.2,39.5 			"/>
		</g>
		
			<rect x="90.7" y="135.6" transform="matrix(0.9646 -0.2638 0.2638 0.9646 -33.1917 33.9594)" class="st6" width="38.4" height="10"/>
		<g>
			<g>
				<path class="st6" d="M148.1,70.8L41.4,99.9c1.5,5.6,3.9,10.8,6.9,15.5L150,87.6C150.2,82.1,149.6,76.4,148.1,70.8z"/>
				<path class="st6" d="M109.3,138.7c16.1-4.4,28.5-15.5,35.2-29.4l-80.6,22C76.8,139.9,93.2,143.1,109.3,138.7z"/>
				<path class="st6" d="M48.3,115.4c1.7,2.6,3.6,5.1,5.7,7.4l2.4-4.2l11.2,6.4l6.4-11.2l11.2,6.4l6.4-11.2l11.2,6.4l6.4-11.2
					l11.2,6.4l6.4-11.2l11.2,6.4l6.4-11.2l4.2,2.4c0.6-3,1.1-6.1,1.2-9.3L48.3,115.4z"/>
				<path class="st6" d="M138.1,105.7l-11.2-6.4l-6.4,11.2l-11.2-6.4l-6.4,11.2l-11.2-6.4l-6.4,11.2l-11.2-6.4L67.7,125l-11.2-6.4
					l-2.4,4.2c3,3.2,6.3,6.1,10,8.5l80.6-22c1.9-3.9,3.3-8.1,4.2-12.4l-4.2-2.4L138.1,105.7z"/>
			</g>
			<g>
				
					<rect x="63.8" y="115.3" transform="matrix(0.4956 -0.8686 0.8686 0.4956 -68.549 115.9414)" class="st4" width="3.4" height="3.4"/>
				
					<rect x="81.5" y="110.5" transform="matrix(0.4956 -0.8686 0.8686 0.4956 -55.4323 128.8586)" class="st4" width="3.4" height="3.4"/>
				
					<rect x="99.2" y="105.6" transform="matrix(0.4956 -0.8686 0.8686 0.4956 -42.3156 141.7757)" class="st4" width="3.4" height="3.4"/>
				
					<rect x="116.9" y="100.8" transform="matrix(0.4956 -0.8686 0.8686 0.4956 -29.1988 154.6929)" class="st4" width="3.4" height="3.4"/>
				
					<rect x="134.6" y="95.9" transform="matrix(0.4956 -0.8686 0.8686 0.4956 -16.0821 167.6101)" class="st4" width="3.4" height="3.4"/>
			</g>
			<g>
				
					<rect x="74.6" y="120.9" transform="matrix(0.4956 -0.8686 0.8686 0.4956 -67.9849 128.1184)" class="st4" width="3.4" height="3.4"/>
				
					<rect x="92.3" y="116.1" transform="matrix(0.4956 -0.8686 0.8686 0.4956 -54.8682 141.0356)" class="st4" width="3.4" height="3.4"/>
				
					<rect x="110" y="111.2" transform="matrix(0.4956 -0.8686 0.8686 0.4956 -41.7515 153.9528)" class="st4" width="3.4" height="3.4"/>
				
					<rect x="127.6" y="106.4" transform="matrix(0.4956 -0.8686 0.8686 0.4956 -28.6347 166.87)" class="st4" width="3.4" height="3.4"/>
			</g>
		</g>
	</g>
	<g class="st2">
		<path class="st8" d="M610.8,552.7l63.9,36.3c0.8,0.4,1,1.4,0.6,2.2l0,0c-3,5.2-9.7,7.1-14.9,4.1l-47.7-27.1
			c-5.2-3-7.1-9.7-4.1-14.9v0C609,552.5,610,552.2,610.8,552.7z"/>
		<g>
			<path class="st8" d="M688,565.8l-63.2-36c-0.9-0.5-1.3-1.8-0.7-2.7l2.9-5.1c3-5.3,9.9-7.2,15.2-4.2l47.3,26.9
				c5.3,3,7.2,9.9,4.2,15.2l-2.9,5.1C690.2,566,688.9,566.3,688,565.8z"/>
			<g>
				
					<ellipse transform="matrix(0.4943 -0.8693 0.8693 0.4943 -132.4988 823.8612)" class="st4" cx="641.9" cy="525.8" rx="1.3" ry="1.3"/>
				
					<ellipse transform="matrix(0.4943 -0.8693 0.8693 0.4943 -132.2683 847.4578)" class="st4" cx="662.3" cy="537.4" rx="1.3" ry="1.3"/>
				
					<ellipse transform="matrix(0.4943 -0.8693 0.8693 0.4943 -132.0377 871.0543)" class="st4" cx="682.7" cy="549" rx="1.3" ry="1.3"/>
				
					<ellipse transform="matrix(0.4943 -0.8693 0.8693 0.4943 -138.6547 835.7208)" class="st4" cx="649" cy="537" rx="1.3" ry="1.3"/>
				
					<ellipse transform="matrix(0.4943 -0.8693 0.8693 0.4943 -124.4919 835.5824)" class="st4" cx="656" cy="524.8" rx="1.3" ry="1.3"/>
				
					<ellipse transform="matrix(0.4943 -0.8693 0.8693 0.4943 -138.4242 859.3173)" class="st4" cx="669.4" cy="548.6" rx="1.3" ry="1.3"/>
				
					<ellipse transform="matrix(0.4943 -0.8693 0.8693 0.4943 -124.2613 859.179)" class="st4" cx="676.4" cy="536.4" rx="1.3" ry="1.3"/>
			</g>
		</g>
		<path class="st7" d="M691.7,573c0,0-3.5,2-4.8-2.7c-1.3-4.7-4.8-2.7-4.8-2.7s-3.5,2-4.8-2.7c-1.3-4.7-4.8-2.7-4.8-2.7
			s-3.5,2-4.8-2.7s-4.8-2.7-4.8-2.7s-3.5,2-4.8-2.7c-1.3-4.7-4.8-2.7-4.8-2.7s-3.5,2-4.8-2.7s-4.8-2.7-4.8-2.7s-3.5,2-4.8-2.7
			c-1.3-4.7-4.8-2.7-4.8-2.7s-3.5,2-4.8-2.7c-1.3-4.7-4.8-2.7-4.8-2.7s-3.5,2-4.8-2.7s-4.8-2.7-4.8-2.7"/>
		<path class="st8" d="M677.1,579.7l-59.6-33.9c-1.9-1.1-2.6-3.6-1.5-5.5l0,0c1.1-1.9,3.6-2.6,5.5-1.5l59.6,33.9
			c1.9,1.1,2.6,3.6,1.5,5.5l0,0C681.6,580.1,679.1,580.8,677.1,579.7z"/>
		<g>
			<line class="st5" x1="622.1" y1="539.1" x2="618.1" y2="546.1"/>
			<line class="st5" x1="626.9" y1="541.8" x2="622.9" y2="548.9"/>
			<line class="st5" x1="675.8" y1="569.6" x2="671.8" y2="576.7"/>
			<line class="st5" x1="680.6" y1="572.3" x2="676.5" y2="579.4"/>
			<line class="st5" x1="640.5" y1="549.6" x2="636.5" y2="556.6"/>
			<line class="st5" x1="660.5" y1="560.9" x2="656.5" y2="568"/>
		</g>
		<path class="st8" d="M675.4,589.4l-65.3-37.2c-2.2-1.3-3-4.1-1.7-6.3l0,0c1.3-2.2,4.1-3,6.3-1.7l65.3,37.2c2.2,1.3,3,4.1,1.7,6.3
			l0,0C680.5,589.9,677.6,590.7,675.4,589.4z"/>
		<path class="st4" d="M661.4,582.3l0.3-0.6l-2.7-1.5l-2.3,4.1c-0.4,0.7-0.2,1.7,0.6,2.1c0.7,0.4,1.7,0.2,2.1-0.6l0.2-0.3
			c0,0,0.6-0.6,1.8,0.1c0.7,0.4,1.7,0.2,2.1-0.6l0.6-1.1L661.4,582.3z"/>
		<path class="st7" d="M827.8,126.7c1.4-3,1.9-6.2,1.6-9.3l4.4-8.9l-33.9-16.3l-4.4,8.9c-2.6,1.7-4.9,4.1-6.3,7.1
			c-1.7,3.6-2.1,7.5-1.3,11.2l-14.2,34.1l28.4,13.7l17.8-32.4C823.2,133,826.1,130.3,827.8,126.7z"/>
		<g>
			<path class="st8" d="M831.3,113.5c-2.5-2.1-6.1-1.2-6.1-1.2s-6,1.4-7.8-3.7c-1.8-5.1-7.8-3.7-7.8-3.7s-6,1.4-7.8-3.7
				c-0.9-2.5-2.8-3.5-4.5-3.8l-1.9,3.8c-2.6,1.7-4.9,4.1-6.3,7.1c-1.7,3.6-2.1,7.5-1.3,11.2l-14.2,34.1l28.4,13.7l17.8-32.4
				c3.3-1.7,6.2-4.4,7.9-8c1.4-3,1.9-6.2,1.6-9.3L831.3,113.5z"/>
		</g>
		<polyline class="st7" points="805.8,130.2 821.9,73.7 837.4,67.8 		"/>
		
			<ellipse transform="matrix(8.682982e-02 -0.9962 0.9962 8.682982e-02 573.1306 922.3703)" class="st4" cx="789.7" cy="148.6" rx="1.4" ry="1.4"/>
		
			<ellipse transform="matrix(8.682982e-02 -0.9962 0.9962 8.682982e-02 608.1389 932.8961)" class="st4" cx="812.9" cy="134.7" rx="1.4" ry="1.4"/>
		
			<ellipse transform="matrix(8.682982e-02 -0.9962 0.9962 8.682982e-02 618.5145 902.9492)" class="st4" cx="801.8" cy="114.1" rx="1.4" ry="1.4"/>
		
			<ellipse transform="matrix(8.682982e-02 -0.9962 0.9962 8.682982e-02 667.8721 918.6797)" class="st8" cx="835.1" cy="95" rx="2.1" ry="2.1"/>
		<g>
			<g>
				<line class="st7" x1="808" y1="70.7" x2="807.7" y2="73.3"/>
				<line class="st7" x1="807.1" y1="80.1" x2="806.9" y2="82.7"/>
			</g>
			<g>
				<line class="st7" x1="801.4" y1="76.2" x2="804.1" y2="76.4"/>
				<line class="st7" x1="810.8" y1="77" x2="813.5" y2="77.2"/>
			</g>
		</g>
		
			<rect x="741.7" y="34.1" transform="matrix(0.5232 0.8522 -0.8522 0.5232 401.5128 -608.9094)" class="st8" width="6.3" height="40.6"/>
		
			<rect x="745.6" y="39.4" transform="matrix(-3.488215e-02 0.9994 -0.9994 -3.488215e-02 830.0627 -690.0018)" class="st8" width="5.1" height="32.8"/>
		
			<rect x="726.5" y="89.8" transform="matrix(-0.5733 0.8193 -0.8193 -0.5733 1238.2653 -424.687)" class="st8" width="6.3" height="40.6"/>
		
			<rect x="733.6" y="136.2" transform="matrix(0.2955 0.9553 -0.9553 0.2955 661.4102 -597.2802)" class="st8" width="4.3" height="27.2"/>
		
			<rect x="759.7" y="54.1" transform="matrix(0.3595 0.9331 -0.9331 0.3595 558.0019 -664.2347)" class="st8" width="6.3" height="40.6"/>
	</g>
</g>
</svg>
