<?xml version="1.0" encoding="UTF-8"?>
<svg width="201px" height="44px" viewBox="0 0 201 44" version="1.1" xmlns="http://www.w3.org/2000/svg" xmlns:xlink="http://www.w3.org/1999/xlink">
    <!-- Generator: Sketch 40.3 (33839) - http://www.bohemiancoding.com/sketch -->
    <title>bubble__send-location</title>
    <desc>Created with Sketch.</desc>
    <defs>
        <rect id="path-1" x="0" y="0" width="201" height="44" rx="22"></rect>
        <mask id="mask-2" maskContentUnits="userSpaceOnUse" maskUnits="objectBoundingBox" x="0" y="0" width="201" height="44" fill="white">
            <use xlink:href="#path-1"></use>
        </mask>
    </defs>
    <g id="Page-1" stroke="none" stroke-width="1" fill="none" fill-rule="evenodd">
        <g id="Desktop-HD" transform="translate(-518.000000, -776.000000)">
            <g id="bubble__send-location" transform="translate(518.000000, 776.000000)">
                <g id="Page-1">
                    <use id="Rectangle-3" stroke="#008CFF" mask="url(#mask-2)" stroke-width="4" fill="#FFFFFF" xlink:href="#path-1"></use>
                    <g id="Group-8" transform="translate(9.000000, 6.533800)" fill="#008CFF">
                        <path d="M29.5342,15.2332 C29.5342,23.3882 22.9232,30.0002 14.7662,30.0002 C6.6112,30.0002 0.0002,23.3882 0.0002,15.2332 C0.0002,7.0782 6.6112,0.4662 14.7662,0.4662 C22.9232,0.4662 29.5342,7.0782 29.5342,15.2332" id="Fill-6"></path>
                    </g>
                    <g id="Group-5" transform="translate(17.000000, 13.533800)">
                        <path d="M11.9014,9.0867 L11.8914,9.0827 C12.4334,8.1837 12.7514,7.1327 12.7514,6.0047 C12.7514,2.6997 10.0724,0.0207 6.7664,0.0207 C3.4624,0.0207 0.7824,2.6997 0.7824,6.0047 C0.7824,7.1317 1.0994,8.1827 1.6414,9.0827 L1.6354,9.0827 L1.6834,9.1507 C1.8014,9.3427 1.9294,9.5277 2.0694,9.7047 L6.7664,16.4417 L6.7684,16.2827 L6.7704,16.4457 L11.5504,9.5897 C11.6414,9.4677 11.7294,9.3447 11.8114,9.2157 L11.9014,9.0867 Z" id="Fill-1" fill="#FFFFFF"></path>
                        <path d="M8.9912,5.8797 C8.9912,7.1087 7.9952,8.1037 6.7662,8.1037 C5.5392,8.1037 4.5432,7.1087 4.5432,5.8797 C4.5432,4.6507 5.5392,3.6557 6.7662,3.6557 C7.9952,3.6557 8.9912,4.6507 8.9912,5.8797" id="Fill-3" fill="#008CFF"></path>
                    </g>
                </g>
                <path d="M53.5865335,25.04 C53.9332019,25.5600026 54.3765308,25.9433321 54.9165335,26.19 C55.4565362,26.4366679 56.0131973,26.56 56.5865335,26.56 C56.9065351,26.56 57.2331985,26.5100005 57.5665335,26.41 C57.8998685,26.3099995 58.2031988,26.160001 58.4765335,25.96 C58.7498682,25.759999 58.9731993,25.5133348 59.1465335,25.22 C59.3198677,24.9266652 59.4065335,24.5866686 59.4065335,24.2 C59.4065335,23.6533306 59.2332019,23.2366681 58.8865335,22.95 C58.5398651,22.6633319 58.1098694,22.4233343 57.5965335,22.23 C57.0831976,22.0366657 56.5232032,21.8500009 55.9165335,21.67 C55.3098638,21.4899991 54.7498694,21.2400016 54.2365335,20.92 C53.7231976,20.5999984 53.2932019,20.1700027 52.9465335,19.63 C52.5998651,19.0899973 52.4265335,18.3600046 52.4265335,17.44 C52.4265335,17.0266646 52.5165326,16.586669 52.6965335,16.12 C52.8765344,15.653331 53.1598649,15.2266686 53.5465335,14.84 C53.9332021,14.4533314 54.4298638,14.1300013 55.0365335,13.87 C55.6432032,13.6099987 56.3731959,13.48 57.2265335,13.48 C57.9998707,13.48 58.7398633,13.5866656 59.4465335,13.8 C60.1532037,14.0133344 60.7731975,14.4466634 61.3065335,15.1 L59.7465335,16.52 C59.5065323,16.1466648 59.1665357,15.8466678 58.7265335,15.62 C58.2865313,15.3933322 57.7865363,15.28 57.2265335,15.28 C56.6931975,15.28 56.2498686,15.3499993 55.8965335,15.49 C55.5431984,15.6300007 55.2598679,15.8099989 55.0465335,16.03 C54.8331991,16.2500011 54.6832006,16.4866654 54.5965335,16.74 C54.5098664,16.9933346 54.4665335,17.2266656 54.4665335,17.44 C54.4665335,18.040003 54.6398651,18.4999984 54.9865335,18.82 C55.3332019,19.1400016 55.7631976,19.399999 56.2765335,19.6 C56.7898694,19.800001 57.3498638,19.9799992 57.9565335,20.14 C58.5632032,20.3000008 59.1231976,20.5233319 59.6365335,20.81 C60.1498694,21.0966681 60.5798651,21.4833309 60.9265335,21.97 C61.2732019,22.4566691 61.4465335,23.1266624 61.4465335,23.98 C61.4465335,24.6600034 61.3165348,25.2733306 61.0565335,25.82 C60.7965322,26.3666694 60.4465357,26.8266648 60.0065335,27.2 C59.5665313,27.5733352 59.0465365,27.859999 58.4465335,28.06 C57.8465305,28.260001 57.2065369,28.36 56.5265335,28.36 C55.6198623,28.36 54.7598709,28.2000016 53.9465335,27.88 C53.1331961,27.5599984 52.4865359,27.06667 52.0065335,26.4 L53.5865335,25.04 Z M65.4065335,23.92 C65.4065335,24.3333354 65.4965326,24.7099983 65.6765335,25.05 C65.8565344,25.3900017 66.0931987,25.6799988 66.3865335,25.92 C66.6798683,26.1600012 67.0198649,26.346666 67.4065335,26.48 C67.7932021,26.613334 68.1931981,26.68 68.6065335,26.68 C69.1665363,26.68 69.6531981,26.5500013 70.0665335,26.29 C70.4798689,26.0299987 70.8598651,25.6866688 71.2065335,25.26 L72.5665335,26.3 C71.5665285,27.5933398 70.1665425,28.24 68.3665335,28.24 C67.6198631,28.24 66.9432032,28.1133346 66.3365335,27.86 C65.7298638,27.6066654 65.2165356,27.2566689 64.7965335,26.81 C64.3765314,26.3633311 64.0532013,25.8366697 63.8265335,25.23 C63.5998657,24.6233303 63.4865335,23.9666702 63.4865335,23.26 C63.4865335,22.5533298 63.6098656,21.8966697 63.8565335,21.29 C64.1032014,20.6833303 64.443198,20.1566689 64.8765335,19.71 C65.309869,19.2633311 65.8265305,18.9133346 66.4265335,18.66 C67.0265365,18.4066654 67.6798633,18.28 68.3865335,18.28 C69.2265377,18.28 69.9365306,18.4266652 70.5165335,18.72 C71.0965364,19.0133348 71.5731983,19.3966643 71.9465335,19.87 C72.3198687,20.3433357 72.589866,20.8766637 72.7565335,21.47 C72.923201,22.0633363 73.0065335,22.6666636 73.0065335,23.28 L73.0065335,23.92 L65.4065335,23.92 Z M71.0865335,22.48 C71.0732001,22.079998 71.0098674,21.713335 70.8965335,21.38 C70.7831996,21.046665 70.6132013,20.7566679 70.3865335,20.51 C70.1598657,20.2633321 69.8765352,20.0700007 69.5365335,19.93 C69.1965318,19.7899993 68.7998691,19.72 68.3465335,19.72 C67.9065313,19.72 67.503202,19.8033325 67.1365335,19.97 C66.769865,20.1366675 66.4598681,20.353332 66.2065335,20.62 C65.9531989,20.886668 65.7565342,21.1833317 65.6165335,21.51 C65.4765328,21.8366683 65.4065335,22.1599984 65.4065335,22.48 L71.0865335,22.48 Z M75.3865335,18.52 L77.1865335,18.52 L77.1865335,19.98 L77.2265335,19.98 C77.4532013,19.4733308 77.8465307,19.0633349 78.4065335,18.75 C78.9665363,18.4366651 79.6131965,18.28 80.3465335,18.28 C80.7998691,18.28 81.2365314,18.3499993 81.6565335,18.49 C82.0765356,18.6300007 82.4431986,18.8466652 82.7565335,19.14 C83.0698684,19.4333348 83.3198659,19.8099977 83.5065335,20.27 C83.6932011,20.7300023 83.7865335,21.2733302 83.7865335,21.9 L83.7865335,28 L81.9865335,28 L81.9865335,22.4 C81.9865335,21.9599978 81.9265341,21.5833349 81.8065335,21.27 C81.6865329,20.9566651 81.5265345,20.7033343 81.3265335,20.51 C81.1265325,20.3166657 80.8965348,20.1766671 80.6365335,20.09 C80.3765322,20.0033329 80.1065349,19.96 79.8265335,19.96 C79.4531983,19.96 79.1065351,20.0199994 78.7865335,20.14 C78.4665319,20.2600006 78.1865347,20.4499987 77.9465335,20.71 C77.7065323,20.9700013 77.5198675,21.299998 77.3865335,21.7 C77.2531995,22.100002 77.1865335,22.5733306 77.1865335,23.12 L77.1865335,28 L75.3865335,28 L75.3865335,18.52 Z M96.2265335,28 L94.4265335,28 L94.4265335,26.64 L94.3865335,26.64 C94.0398651,27.1466692 93.5632032,27.5399986 92.9565335,27.82 C92.3498638,28.1000014 91.7265367,28.24 91.0865335,28.24 C90.3531965,28.24 89.6898698,28.1133346 89.0965335,27.86 C88.5031972,27.6066654 87.9965356,27.2533356 87.5765335,26.8 C87.1565314,26.3466644 86.8332013,25.820003 86.6065335,25.22 C86.3798657,24.619997 86.2665335,23.9666702 86.2665335,23.26 C86.2665335,22.5533298 86.3798657,21.8966697 86.6065335,21.29 C86.8332013,20.6833303 87.1565314,20.1566689 87.5765335,19.71 C87.9965356,19.2633311 88.5031972,18.9133346 89.0965335,18.66 C89.6898698,18.4066654 90.3531965,18.28 91.0865335,18.28 C91.7665369,18.28 92.4065305,18.4233319 93.0065335,18.71 C93.6065365,18.9966681 94.0665319,19.3866642 94.3865335,19.88 L94.4265335,19.88 L94.4265335,12.88 L96.2265335,12.88 L96.2265335,28 Z M91.3065335,26.56 C91.7865359,26.56 92.2198649,26.4766675 92.6065335,26.31 C92.9932021,26.1433325 93.3198655,25.9166681 93.5865335,25.63 C93.8532015,25.3433319 94.0598661,24.9966687 94.2065335,24.59 C94.3532009,24.1833313 94.4265335,23.7400024 94.4265335,23.26 C94.4265335,22.7799976 94.3532009,22.3366687 94.2065335,21.93 C94.0598661,21.5233313 93.8532015,21.1766681 93.5865335,20.89 C93.3198655,20.6033319 92.9932021,20.3766675 92.6065335,20.21 C92.2198649,20.0433325 91.7865359,19.96 91.3065335,19.96 C90.8265311,19.96 90.3932021,20.0433325 90.0065335,20.21 C89.6198649,20.3766675 89.2932015,20.6033319 89.0265335,20.89 C88.7598655,21.1766681 88.5532009,21.5233313 88.4065335,21.93 C88.2598661,22.3366687 88.1865335,22.7799976 88.1865335,23.26 C88.1865335,23.7400024 88.2598661,24.1833313 88.4065335,24.59 C88.5532009,24.9966687 88.7598655,25.3433319 89.0265335,25.63 C89.2932015,25.9166681 89.6198649,26.1433325 90.0065335,26.31 C90.3932021,26.4766675 90.8265311,26.56 91.3065335,26.56 L91.3065335,26.56 Z M105.086534,12.88 L106.886534,12.88 L106.886534,28 L105.086534,28 L105.086534,12.88 Z M111.426534,23.26 C111.426534,23.7400024 111.499866,24.1833313 111.646534,24.59 C111.793201,24.9966687 111.999866,25.3433319 112.266534,25.63 C112.533202,25.9166681 112.859865,26.1433325 113.246534,26.31 C113.633202,26.4766675 114.066531,26.56 114.546534,26.56 C115.026536,26.56 115.459865,26.4766675 115.846534,26.31 C116.233202,26.1433325 116.559866,25.9166681 116.826534,25.63 C117.093202,25.3433319 117.299866,24.9966687 117.446534,24.59 C117.593201,24.1833313 117.666534,23.7400024 117.666534,23.26 C117.666534,22.7799976 117.593201,22.3366687 117.446534,21.93 C117.299866,21.5233313 117.093202,21.1766681 116.826534,20.89 C116.559866,20.6033319 116.233202,20.3766675 115.846534,20.21 C115.459865,20.0433325 115.026536,19.96 114.546534,19.96 C114.066531,19.96 113.633202,20.0433325 113.246534,20.21 C112.859865,20.3766675 112.533202,20.6033319 112.266534,20.89 C111.999866,21.1766681 111.793201,21.5233313 111.646534,21.93 C111.499866,22.3366687 111.426534,22.7799976 111.426534,23.26 L111.426534,23.26 Z M109.506534,23.26 C109.506534,22.5666632 109.636532,21.920003 109.896534,21.32 C110.156535,20.719997 110.513198,20.1933356 110.966534,19.74 C111.419869,19.2866644 111.953197,18.9300013 112.566534,18.67 C113.17987,18.4099987 113.839863,18.28 114.546534,18.28 C115.253204,18.28 115.913197,18.4099987 116.526534,18.67 C117.13987,18.9300013 117.673198,19.2866644 118.126534,19.74 C118.579869,20.1933356 118.936532,20.719997 119.196534,21.32 C119.456535,21.920003 119.586534,22.5666632 119.586534,23.26 C119.586534,23.9533368 119.456535,24.6033303 119.196534,25.21 C118.936532,25.8166697 118.579869,26.3433311 118.126534,26.79 C117.673198,27.2366689 117.13987,27.5899987 116.526534,27.85 C115.913197,28.1100013 115.253204,28.24 114.546534,28.24 C113.839863,28.24 113.17987,28.1100013 112.566534,27.85 C111.953197,27.5899987 111.419869,27.2366689 110.966534,26.79 C110.513198,26.3433311 110.156535,25.8166697 109.896534,25.21 C109.636532,24.6033303 109.506534,23.9533368 109.506534,23.26 L109.506534,23.26 Z M128.846534,21.04 C128.513199,20.6933316 128.163202,20.4300009 127.796534,20.25 C127.429865,20.0699991 126.993203,19.98 126.486534,19.98 C125.993198,19.98 125.563202,20.0699991 125.196534,20.25 C124.829865,20.4300009 124.523201,20.6766651 124.276534,20.99 C124.029866,21.3033349 123.843201,21.6633313 123.716534,22.07 C123.589866,22.4766687 123.526534,22.8999978 123.526534,23.34 C123.526534,23.7800022 123.599866,24.1966647 123.746534,24.59 C123.893201,24.9833353 124.099866,25.3266652 124.366534,25.62 C124.633202,25.9133348 124.953198,26.1433325 125.326534,26.31 C125.699869,26.4766675 126.119865,26.56 126.586534,26.56 C127.093203,26.56 127.526532,26.4700009 127.886534,26.29 C128.246535,26.1099991 128.579865,25.8466684 128.886534,25.5 L130.166534,26.78 C129.699865,27.3000026 129.156537,27.6733322 128.536534,27.9 C127.91653,28.1266678 127.25987,28.24 126.566534,28.24 C125.833197,28.24 125.163203,28.1200012 124.556534,27.88 C123.949864,27.6399988 123.426536,27.3033355 122.986534,26.87 C122.546531,26.4366645 122.206535,25.9166697 121.966534,25.31 C121.726532,24.7033303 121.606534,24.033337 121.606534,23.3 C121.606534,22.566663 121.726532,21.8933364 121.966534,21.28 C122.206535,20.6666636 122.543198,20.1400022 122.976534,19.7 C123.409869,19.2599978 123.929864,18.9166679 124.536534,18.67 C125.143203,18.4233321 125.819863,18.3 126.566534,18.3 C127.25987,18.3 127.923197,18.4233321 128.556534,18.67 C129.18987,18.9166679 129.739865,19.2933308 130.206534,19.8 L128.846534,21.04 Z M131.966534,19.68 C132.473203,19.213331 133.059864,18.8633345 133.726534,18.63 C134.393204,18.3966655 135.059864,18.28 135.726534,18.28 C136.41987,18.28 137.016531,18.3666658 137.516534,18.54 C138.016536,18.7133342 138.426532,18.9466652 138.746534,19.24 C139.066535,19.5333348 139.303199,19.8699981 139.456534,20.25 C139.609868,20.6300019 139.686534,21.0266646 139.686534,21.44 L139.686534,26.28 C139.686534,26.613335 139.6932,26.9199986 139.706534,27.2 C139.719867,27.4800014 139.739867,27.7466654 139.766534,28 L138.166534,28 C138.126533,27.5199976 138.106534,27.0400024 138.106534,26.56 L138.066534,26.56 C137.666532,27.1733364 137.193203,27.6066654 136.646534,27.86 C136.099864,28.1133346 135.466537,28.24 134.746534,28.24 C134.306531,28.24 133.886536,28.1800006 133.486534,28.06 C133.086532,27.9399994 132.736535,27.7600012 132.436534,27.52 C132.136532,27.2799988 131.899868,26.9833351 131.726534,26.63 C131.553199,26.2766649 131.466534,25.866669 131.466534,25.4 C131.466534,24.7866636 131.603199,24.2733354 131.876534,23.86 C132.149868,23.4466646 132.523198,23.1100013 132.996534,22.85 C133.469869,22.5899987 134.023197,22.4033339 134.656534,22.29 C135.28987,22.1766661 135.96653,22.12 136.686534,22.12 L138.006534,22.12 L138.006534,21.72 C138.006534,21.4799988 137.959867,21.2400012 137.866534,21 C137.7732,20.7599988 137.633201,20.5433343 137.446534,20.35 C137.259866,20.1566657 137.026535,20.0033339 136.746534,19.89 C136.466532,19.7766661 136.133202,19.72 135.746534,19.72 C135.399865,19.72 135.096535,19.753333 134.836534,19.82 C134.576532,19.886667 134.339868,19.9699995 134.126534,20.07 C133.913199,20.1700005 133.719868,20.286666 133.546534,20.42 C133.373199,20.553334 133.206534,20.6799994 133.046534,20.8 L131.966534,19.68 Z M137.046534,23.44 C136.619865,23.44 136.183202,23.4633331 135.736534,23.51 C135.289865,23.5566669 134.883202,23.646666 134.516534,23.78 C134.149865,23.913334 133.849868,24.0999988 133.616534,24.34 C133.383199,24.5800012 133.266534,24.8866648 133.266534,25.26 C133.266534,25.8066694 133.449865,26.1999988 133.816534,26.44 C134.183202,26.6800012 134.679864,26.8 135.306534,26.8 C135.799869,26.8 136.219865,26.7166675 136.566534,26.55 C136.913202,26.3833325 137.193199,26.166668 137.406534,25.9 C137.619868,25.633332 137.7732,25.3366683 137.866534,25.01 C137.959867,24.6833317 138.006534,24.3600016 138.006534,24.04 L138.006534,23.44 L137.046534,23.44 Z M147.606534,20.08 L145.026534,20.08 L145.026534,24.38 C145.026534,24.646668 145.0332,24.9099987 145.046534,25.17 C145.059867,25.4300013 145.109866,25.6633323 145.196534,25.87 C145.283201,26.0766677 145.416533,26.2433327 145.596534,26.37 C145.776534,26.4966673 146.039865,26.56 146.386534,26.56 C146.599868,26.56 146.819866,26.5400002 147.046534,26.5 C147.273201,26.4599998 147.479866,26.3866672 147.666534,26.28 L147.666534,27.92 C147.453199,28.0400006 147.176535,28.1233331 146.836534,28.17 C146.496532,28.2166669 146.233201,28.24 146.046534,28.24 C145.353197,28.24 144.816535,28.1433343 144.436534,27.95 C144.056532,27.7566657 143.776534,27.5066682 143.596534,27.2 C143.416533,26.8933318 143.309867,26.5500019 143.276534,26.17 C143.2432,25.7899981 143.226534,25.4066686 143.226534,25.02 L143.226534,20.08 L141.146534,20.08 L141.146534,18.52 L143.226534,18.52 L143.226534,15.86 L145.026534,15.86 L145.026534,18.52 L147.606534,18.52 L147.606534,20.08 Z M150.286534,18.52 L152.086534,18.52 L152.086534,28 L150.286534,28 L150.286534,18.52 Z M149.866534,15.12 C149.866534,14.7599982 149.996532,14.4500013 150.256534,14.19 C150.516535,13.9299987 150.826532,13.8 151.186534,13.8 C151.546535,13.8 151.856532,13.9299987 152.116534,14.19 C152.376535,14.4500013 152.506534,14.7599982 152.506534,15.12 C152.506534,15.4800018 152.376535,15.7899987 152.116534,16.05 C151.856532,16.3100013 151.546535,16.44 151.186534,16.44 C150.826532,16.44 150.516535,16.3100013 150.256534,16.05 C149.996532,15.7899987 149.866534,15.4800018 149.866534,15.12 L149.866534,15.12 Z M156.626534,23.26 C156.626534,23.7400024 156.699866,24.1833313 156.846534,24.59 C156.993201,24.9966687 157.199866,25.3433319 157.466534,25.63 C157.733202,25.9166681 158.059865,26.1433325 158.446534,26.31 C158.833202,26.4766675 159.266531,26.56 159.746534,26.56 C160.226536,26.56 160.659865,26.4766675 161.046534,26.31 C161.433202,26.1433325 161.759866,25.9166681 162.026534,25.63 C162.293202,25.3433319 162.499866,24.9966687 162.646534,24.59 C162.793201,24.1833313 162.866534,23.7400024 162.866534,23.26 C162.866534,22.7799976 162.793201,22.3366687 162.646534,21.93 C162.499866,21.5233313 162.293202,21.1766681 162.026534,20.89 C161.759866,20.6033319 161.433202,20.3766675 161.046534,20.21 C160.659865,20.0433325 160.226536,19.96 159.746534,19.96 C159.266531,19.96 158.833202,20.0433325 158.446534,20.21 C158.059865,20.3766675 157.733202,20.6033319 157.466534,20.89 C157.199866,21.1766681 156.993201,21.5233313 156.846534,21.93 C156.699866,22.3366687 156.626534,22.7799976 156.626534,23.26 L156.626534,23.26 Z M154.706534,23.26 C154.706534,22.5666632 154.836532,21.920003 155.096534,21.32 C155.356535,20.719997 155.713198,20.1933356 156.166534,19.74 C156.619869,19.2866644 157.153197,18.9300013 157.766534,18.67 C158.37987,18.4099987 159.039863,18.28 159.746534,18.28 C160.453204,18.28 161.113197,18.4099987 161.726534,18.67 C162.33987,18.9300013 162.873198,19.2866644 163.326534,19.74 C163.779869,20.1933356 164.136532,20.719997 164.396534,21.32 C164.656535,21.920003 164.786534,22.5666632 164.786534,23.26 C164.786534,23.9533368 164.656535,24.6033303 164.396534,25.21 C164.136532,25.8166697 163.779869,26.3433311 163.326534,26.79 C162.873198,27.2366689 162.33987,27.5899987 161.726534,27.85 C161.113197,28.1100013 160.453204,28.24 159.746534,28.24 C159.039863,28.24 158.37987,28.1100013 157.766534,27.85 C157.153197,27.5899987 156.619869,27.2366689 156.166534,26.79 C155.713198,26.3433311 155.356535,25.8166697 155.096534,25.21 C154.836532,24.6033303 154.706534,23.9533368 154.706534,23.26 L154.706534,23.26 Z M167.266534,18.52 L169.066534,18.52 L169.066534,19.98 L169.106534,19.98 C169.333201,19.4733308 169.726531,19.0633349 170.286534,18.75 C170.846536,18.4366651 171.493197,18.28 172.226534,18.28 C172.679869,18.28 173.116531,18.3499993 173.536534,18.49 C173.956536,18.6300007 174.323199,18.8466652 174.636534,19.14 C174.949868,19.4333348 175.199866,19.8099977 175.386534,20.27 C175.573201,20.7300023 175.666534,21.2733302 175.666534,21.9 L175.666534,28 L173.866534,28 L173.866534,22.4 C173.866534,21.9599978 173.806534,21.5833349 173.686534,21.27 C173.566533,20.9566651 173.406535,20.7033343 173.206534,20.51 C173.006533,20.3166657 172.776535,20.1766671 172.516534,20.09 C172.256532,20.0033329 171.986535,19.96 171.706534,19.96 C171.333198,19.96 170.986535,20.0199994 170.666534,20.14 C170.346532,20.2600006 170.066535,20.4499987 169.826534,20.71 C169.586532,20.9700013 169.399868,21.299998 169.266534,21.7 C169.1332,22.100002 169.066534,22.5733306 169.066534,23.12 L169.066534,28 L167.266534,28 L167.266534,18.52 Z" id="Send-location" fill="#008CFF"></path>
            </g>
        </g>
    </g>
</svg>